# xmcd
#
# Track frame offsets:
#	182
#	2835
#	20737
#	39005
#	57035
#	74557
#	88445
#	105387
#	127047
#	143145
#	158190
#	172392
#	187672
#
# Disc length: 2723 seconds
#
# Revision: 0
# Processed by: cddbd v1.5.2PL0 Copyright (c) Steve Scherf et al.
# Submitted via: audiograbber 1.83.01
#
DISCID=b00aa10d
DTITLE=Bernard, Crystal - The girl next door
DYEAR=1996
DGENRE=Country
TTITLE0=Intro
TTITLE1=Could have been mine
TTITLE2=You're gonna miss a whole lotta love
TTITLE3=Eleven roses
TTITLE4=Have we forgotten what love is
TTITLE5=This purple heart
TTITLE6=State of mind
TTITLE7=Too far this time
TTITLE8=Miracle
TTITLE9=When you took your love away
TTITLE10=Till I get over you
TTITLE11=Call it love
TTITLE12=If you have love
EXTD=
EXTT0=
EXTT1=
EXTT2=
EXTT3=
EXTT4=
EXTT5=
EXTT6=
EXTT7=
EXTT8=
EXTT9=
EXTT10=
EXTT11=
EXTT12=
PLAYORDER=
